<svg aria-hidden="true" style="position: absolute; width: 0; height: 0; overflow: hidden;" version="1.1" xmlns="http://www.w3.org/2000/svg" xmlns:xlink="http://www.w3.org/1999/xlink">
<defs>
<symbol id="icon-burger" viewBox="0 0 38 32">
<path stroke-linejoin="miter" stroke-linecap="round" stroke-miterlimit="4" stroke-width="4.8" d="M3.2 3.2h32M3.2 16h32M3.2 28.8h32"></path>
</symbol>
<symbol id="icon-shopping-bag" viewBox="0 0 32 32">
<path stroke-linejoin="round" stroke-linecap="round" stroke-miterlimit="4" stroke-width="2" d="M12 8v1.333c0 2.209 1.791 4 4 4s4-1.791 4-4v-1.333"></path>
<path stroke-linejoin="round" stroke-linecap="butt" stroke-miterlimit="4" stroke-width="2" d="M20.815 4h-9.631c-2.607 0-4.832 1.885-5.261 4.457l-2.222 13.333c-0.542 3.251 1.965 6.21 5.261 6.21h14.075c3.296 0 5.803-2.959 5.261-6.21l-2.222-13.333c-0.429-2.572-2.654-4.457-5.261-4.457z"></path>
</symbol>
<symbol id="icon-ticket" viewBox="0 0 34 32">
<path d="M30.885 20.321v0zM30.885 11.679v0zM3.401 20.321v0zM3.401 11.679v0zM22.926 12.641c0.669-0.669 0.669-1.755 0-2.424s-1.755-0.669-2.424 0l2.424 2.424zM11.359 19.359c-0.669 0.669-0.669 1.755 0 2.424s1.755 0.669 2.424 0l-2.424-2.424zM8 28c-2.42 0-4.381-1.961-4.381-4.381h-3.429c0 4.313 3.496 7.81 7.81 7.81v-3.429zM30.667 23.619c0 2.42-1.961 4.381-4.381 4.381v3.429c4.313 0 7.81-3.496 7.81-7.81h-3.429zM26.286 4c2.42 0 4.381 1.961 4.381 4.381h3.429c0-4.313-3.496-7.81-7.81-7.81v3.429zM8 0.571c-4.313 0-7.81 3.496-7.81 7.81h3.429c0-2.42 1.961-4.381 4.381-4.381v-3.429zM31.446 18.701c-1.121-0.388-1.922-1.453-1.922-2.701h-3.429c0 2.754 1.77 5.090 4.229 5.941l1.122-3.24zM29.524 16c0-1.248 0.801-2.313 1.922-2.701l-1.122-3.24c-2.459 0.851-4.229 3.187-4.229 5.941h3.429zM4.762 16c0 1.248-0.801 2.313-1.922 2.701l1.122 3.24c2.459-0.851 4.229-3.187 4.229-5.941h-3.429zM2.84 13.299c1.121 0.388 1.922 1.453 1.922 2.701h3.429c0-2.754-1.77-5.090-4.229-5.941l-1.122 3.24zM34.095 9.905v-1.524h-3.429v1.524h3.429zM30.667 22.095v1.524h3.429v-1.524h-3.429zM0.191 22.095v1.524h3.429v-1.524h-3.429zM3.619 9.905v-1.524h-3.429v1.524h3.429zM26.286 28h-18.286v3.429h18.286v-3.429zM26.286 0.571h-18.286v3.429h18.286v-3.429zM2.84 18.701c-1.154 0.399-2.65 1.524-2.65 3.394h3.429c0 0.033-0.008 0.061-0.014 0.076-0.005 0.012-0.003 0.002 0.022-0.026 0.057-0.063 0.174-0.148 0.335-0.204l-1.122-3.24zM31.446 13.299c1.154-0.399 2.65-1.524 2.65-3.394h-3.429c0-0.033 0.008-0.061 0.014-0.076 0.005-0.012 0.003-0.002-0.021 0.026-0.057 0.063-0.174 0.148-0.335 0.204l1.122 3.24zM3.962 10.059c-0.161-0.056-0.279-0.141-0.335-0.204-0.025-0.027-0.027-0.038-0.022-0.026 0.006 0.015 0.014 0.043 0.014 0.076h-3.429c0 1.871 1.496 2.995 2.65 3.394l1.122-3.24zM30.324 21.941c0.161 0.056 0.279 0.141 0.335 0.204 0.025 0.027 0.027 0.038 0.021 0.026-0.006-0.015-0.014-0.043-0.014-0.076h3.429c0-1.871-1.496-2.995-2.65-3.394l-1.122 3.24zM12.381 11.429c0-0.105 0.085-0.19 0.19-0.19v3.429c1.788 0 3.238-1.45 3.238-3.238h-3.429zM12.571 11.238c0.105 0 0.19 0.085 0.19 0.19h-3.429c0 1.788 1.45 3.238 3.238 3.238v-3.429zM12.762 11.429c0 0.105-0.085 0.19-0.19 0.19v-3.429c-1.788 0-3.238 1.45-3.238 3.238h3.429zM12.571 11.619c-0.105 0-0.19-0.085-0.19-0.19h3.429c0-1.788-1.45-3.238-3.238-3.238v3.429zM21.524 20.571c0-0.105 0.085-0.19 0.19-0.19v3.429c1.788 0 3.238-1.45 3.238-3.238h-3.429zM21.714 20.381c0.105 0 0.19 0.085 0.19 0.19h-3.429c0 1.788 1.45 3.238 3.238 3.238v-3.429zM21.905 20.571c0 0.105-0.085 0.19-0.19 0.19v-3.429c-1.788 0-3.238 1.45-3.238 3.238h3.429zM21.714 20.762c-0.105 0-0.19-0.085-0.19-0.19h3.429c0-1.788-1.45-3.238-3.238-3.238v3.429zM20.502 10.216l-9.143 9.143 2.424 2.424 9.143-9.143-2.424-2.424z"></path>
</symbol>
<symbol id="icon-close" viewBox="0 0 35 32">
<path d="M31.814 4.614c0.781-0.781 0.781-2.047 0-2.828s-2.047-0.781-2.828 0l-11.386 11.386-11.386-11.386c-0.781-0.781-2.047-0.781-2.828 0s-0.781 2.047 0 2.828l11.386 11.386-11.386 11.386c-0.781 0.781-0.781 2.047 0 2.828s2.047 0.781 2.828 0l11.386-11.386 11.386 11.386c0.781 0.781 2.047 0.781 2.828 0s0.781-2.047 0-2.828l-11.386-11.386 11.386-11.386z"></path>
</symbol>
<symbol id="icon-arrow-right" viewBox="0 0 32 32">
<path stroke-linejoin="round" stroke-linecap="round" stroke-miterlimit="4" stroke-width="2.5" d="M6.667 16h18.667"></path>
<path stroke-linejoin="round" stroke-linecap="round" stroke-miterlimit="4" stroke-width="2.5" d="M17.333 24l8-8"></path>
<path stroke-linejoin="round" stroke-linecap="round" stroke-miterlimit="4" stroke-width="2.5" d="M17.333 8l8 8"></path>
</symbol>
<symbol id="icon-star" viewBox="0 0 32 32">
<path d="M14.945 2.537c0.39-0.939 1.72-0.939 2.11-0l3.513 8.447c0.165 0.396 0.537 0.666 0.964 0.7l9.119 0.731c1.013 0.081 1.424 1.346 0.652 2.007l-6.948 5.952c-0.326 0.279-0.467 0.716-0.368 1.133l2.123 8.899c0.236 0.989-0.84 1.77-1.707 1.24l-7.807-4.769c-0.366-0.223-0.826-0.223-1.191 0l-7.807 4.769c-0.868 0.53-1.943-0.252-1.707-1.24l2.123-8.899c0.099-0.417-0.043-0.854-0.368-1.133l-6.948-5.952c-0.772-0.661-0.361-1.926 0.652-2.007l9.119-0.731c0.427-0.034 0.799-0.305 0.964-0.7l3.513-8.447z"></path>
</symbol>
<symbol id="icon-down" viewBox="0 0 60 32">
<path stroke-linejoin="round" stroke-linecap="round" stroke-miterlimit="4" stroke-width="6" d="M5.090 4l24 24 24-24"></path>
</symbol>
<symbol id="icon-search" viewBox="0 0 32 32">
<path stroke-linejoin="round" stroke-linecap="round" stroke-miterlimit="4" stroke-width="2.1818" d="M25.455 25.455l5.091 5.091M29.091 15.273c0-7.632-6.187-13.818-13.818-13.818s-13.818 6.187-13.818 13.818c0 7.632 6.187 13.818 13.818 13.818s13.818-6.187 13.818-13.818z"></path>
</symbol>
</defs>
</svg>
